<svg version="1.1" xmlns="http://www.w3.org/2000/svg" xmlns:xlink="http://www.w3.org/1999/xlink" width="300" height="300" viewBox="0,0,300,300"><g transform="translate(-90,-30)"><g data-paper-data="{&quot;isPaintingLayer&quot;:true}" fill-rule="nonzero" stroke-linejoin="miter" stroke-miterlimit="10" stroke-dasharray="" stroke-dashoffset="0" style="mix-blend-mode: normal"><g stroke-width="2" stroke-linecap="round"><path d="M253.75,259.29144l-107,1l-3,-79l107,15h-19l107,-15l-3,79l-107,-1z" fill="#000000" stroke="#000000"/><path d="M229.49546,120.20856l-67,-20.5l23,54.66575l-42.5,-2l-20.5,-22.5l-20.25,12.5l15,27l121.5,20.5l2.50909,0l121.5,-20.5l15,-27l-20.25,-12.5l-20.5,22.5l-42.5,2l23,-54.66575l-67,20.5z" data-paper-data="{&quot;index&quot;:null}" fill="#000000" stroke="#000000"/><path d="M152.53373,190.46887l-0.5,62.5l39.5,-1.5l5.5,-28.5l-21,0.5l-4.5,10l-1,-43z" fill="#fff6f6" stroke="#050505"/><path d="M182.03373,192.46887l-1,25l19.5,1l-6,34l22.5,-1l-2,-55.5z" fill="#fff6f6" stroke="#050505"/><path d="M218.53373,197.46887l2.5,54h25.5l-8.5,-52z" fill="#fff6f6" stroke="#050505"/><path d="M228.53373,204.96887l1.5,18" fill="none" stroke="#000000"/><path d="M230.53373,229.96887l2,20.5" fill="none" stroke="#000000"/><path d="M241.88194,198.96887l7,51.5l15,-11l-6,-36z" fill="#fff6f6" stroke="#fff6f6"/><path d="M251.38194,210.46887l3.5,24" fill="none" stroke="#000000"/><path d="M270.88194,215.46887l-0.5,-16l15,-0.5l2.5,48l-18,1z" fill="#fff6f6" stroke="#fff6f6"/><path d="M281.38194,191.46887l1.5,15.5l14,5l-6.5,37.5l31.5,2l-7.5,-38.5l17.5,-3.5l2,-23.5z" fill="#fff6f6" stroke="#000000"/><path d="M262.38194,216.96887l16,1l-3,13l-15.5,-5z" fill="#fff6f6" stroke="#000000"/><path d="M208.50247,209.44681l-1.5,30" fill="none" stroke="#000000"/><path d="M251.25,148.23955l55.5,-6.69812l-16.65,35.5z" fill="#fff100" stroke="#000000"/><path d="M192.29717,177.04144l-15.62264,-34.5l52.07547,6.50943z" data-paper-data="{&quot;index&quot;:null}" fill="#fff100" stroke="#000000"/></g><path d="M90,330v-300h300v300z" fill="none" stroke="none" stroke-width="0" stroke-linecap="butt"/></g></g></svg>